<mxfile host="65bd71144e">
    <diagram id="O4PvNhNCL3G9UbC4JcYY" name="UmbridgeLE">
        <mxGraphModel dx="2373" dy="1616" grid="0" gridSize="10" guides="1" tooltips="1" connect="1" arrows="1" fold="1" page="0" pageScale="1" pageWidth="827" pageHeight="1169" math="0" shadow="0">
            <root>
                <mxCell id="0"/>
                <mxCell id="1" parent="0"/>
                <mxCell id="A2_o20lCk7Bo69_bm_1R-1" value="Question" style="swimlane;fontStyle=0;childLayout=stackLayout;horizontal=1;startSize=26;fillColor=none;horizontalStack=0;resizeParent=1;resizeParentMax=0;resizeLast=0;collapsible=1;marginBottom=0;whiteSpace=wrap;html=1;fontSize=14;" parent="1" vertex="1">
                    <mxGeometry x="-462" y="-275" width="140" height="156" as="geometry"/>
                </mxCell>
                <mxCell id="knSYhjle9zeNZ4a80TDH-18" value="id" style="text;strokeColor=none;fillColor=none;align=left;verticalAlign=top;spacingLeft=4;spacingRight=4;overflow=hidden;rotatable=0;points=[[0,0.5],[1,0.5]];portConstraint=eastwest;whiteSpace=wrap;html=1;fontSize=14;" parent="A2_o20lCk7Bo69_bm_1R-1" vertex="1">
                    <mxGeometry y="26" width="140" height="26" as="geometry"/>
                </mxCell>
                <mxCell id="A2_o20lCk7Bo69_bm_1R-2" value="text" style="text;strokeColor=none;fillColor=none;align=left;verticalAlign=top;spacingLeft=4;spacingRight=4;overflow=hidden;rotatable=0;points=[[0,0.5],[1,0.5]];portConstraint=eastwest;whiteSpace=wrap;html=1;fontSize=14;" parent="A2_o20lCk7Bo69_bm_1R-1" vertex="1">
                    <mxGeometry y="52" width="140" height="26" as="geometry"/>
                </mxCell>
                <mxCell id="A2_o20lCk7Bo69_bm_1R-3" value="type" style="text;strokeColor=none;fillColor=none;align=left;verticalAlign=top;spacingLeft=4;spacingRight=4;overflow=hidden;rotatable=0;points=[[0,0.5],[1,0.5]];portConstraint=eastwest;whiteSpace=wrap;html=1;fontSize=14;" parent="A2_o20lCk7Bo69_bm_1R-1" vertex="1">
                    <mxGeometry y="78" width="140" height="26" as="geometry"/>
                </mxCell>
                <mxCell id="knSYhjle9zeNZ4a80TDH-21" value="variants:jsonb" style="text;strokeColor=none;fillColor=none;align=left;verticalAlign=top;spacingLeft=4;spacingRight=4;overflow=hidden;rotatable=0;points=[[0,0.5],[1,0.5]];portConstraint=eastwest;whiteSpace=wrap;html=1;fontSize=14;" parent="A2_o20lCk7Bo69_bm_1R-1" vertex="1">
                    <mxGeometry y="104" width="140" height="26" as="geometry"/>
                </mxCell>
                <mxCell id="Z2HKggQNWwd9ny8_5rTW-1" value="answer:jsonb" style="text;strokeColor=none;fillColor=none;align=left;verticalAlign=top;spacingLeft=4;spacingRight=4;overflow=hidden;rotatable=0;points=[[0,0.5],[1,0.5]];portConstraint=eastwest;whiteSpace=wrap;html=1;fontSize=14;" parent="A2_o20lCk7Bo69_bm_1R-1" vertex="1">
                    <mxGeometry y="130" width="140" height="26" as="geometry"/>
                </mxCell>
                <mxCell id="A2_o20lCk7Bo69_bm_1R-20" value="Attempt" style="swimlane;fontStyle=0;childLayout=stackLayout;horizontal=1;startSize=26;fillColor=none;horizontalStack=0;resizeParent=1;resizeParentMax=0;resizeLast=0;collapsible=1;marginBottom=0;whiteSpace=wrap;html=1;fontSize=14;" parent="1" vertex="1">
                    <mxGeometry x="-560" y="174" width="140" height="130" as="geometry"/>
                </mxCell>
                <mxCell id="A2_o20lCk7Bo69_bm_1R-21" value="id" style="text;strokeColor=none;fillColor=none;align=left;verticalAlign=top;spacingLeft=4;spacingRight=4;overflow=hidden;rotatable=0;points=[[0,0.5],[1,0.5]];portConstraint=eastwest;whiteSpace=wrap;html=1;fontSize=14;" parent="A2_o20lCk7Bo69_bm_1R-20" vertex="1">
                    <mxGeometry y="26" width="140" height="26" as="geometry"/>
                </mxCell>
                <mxCell id="Z2HKggQNWwd9ny8_5rTW-3" value="session" style="text;strokeColor=none;fillColor=none;align=left;verticalAlign=top;spacingLeft=4;spacingRight=4;overflow=hidden;rotatable=0;points=[[0,0.5],[1,0.5]];portConstraint=eastwest;whiteSpace=wrap;html=1;fontSize=14;" parent="A2_o20lCk7Bo69_bm_1R-20" vertex="1">
                    <mxGeometry y="52" width="140" height="26" as="geometry"/>
                </mxCell>
                <mxCell id="HfUUzuVPssNEhjBBsc8r-12" value="user" style="text;strokeColor=none;fillColor=none;align=left;verticalAlign=top;spacingLeft=4;spacingRight=4;overflow=hidden;rotatable=0;points=[[0,0.5],[1,0.5]];portConstraint=eastwest;whiteSpace=wrap;html=1;fontSize=14;" parent="A2_o20lCk7Bo69_bm_1R-20" vertex="1">
                    <mxGeometry y="78" width="140" height="26" as="geometry"/>
                </mxCell>
                <mxCell id="A2_o20lCk7Bo69_bm_1R-23" value="expires" style="text;strokeColor=none;fillColor=none;align=left;verticalAlign=top;spacingLeft=4;spacingRight=4;overflow=hidden;rotatable=0;points=[[0,0.5],[1,0.5]];portConstraint=eastwest;whiteSpace=wrap;html=1;fontSize=14;" parent="A2_o20lCk7Bo69_bm_1R-20" vertex="1">
                    <mxGeometry y="104" width="140" height="26" as="geometry"/>
                </mxCell>
                <mxCell id="A2_o20lCk7Bo69_bm_1R-39" value="QuestionOrder" style="swimlane;fontStyle=0;childLayout=stackLayout;horizontal=1;startSize=26;fillColor=none;horizontalStack=0;resizeParent=1;resizeParentMax=0;resizeLast=0;collapsible=1;marginBottom=0;whiteSpace=wrap;html=1;fontSize=14;" parent="1" vertex="1">
                    <mxGeometry x="-773" y="-101" width="140" height="182" as="geometry"/>
                </mxCell>
                <mxCell id="A2_o20lCk7Bo69_bm_1R-40" value="id" style="text;strokeColor=none;fillColor=none;align=left;verticalAlign=top;spacingLeft=4;spacingRight=4;overflow=hidden;rotatable=0;points=[[0,0.5],[1,0.5]];portConstraint=eastwest;whiteSpace=wrap;html=1;fontSize=14;" parent="A2_o20lCk7Bo69_bm_1R-39" vertex="1">
                    <mxGeometry y="26" width="140" height="26" as="geometry"/>
                </mxCell>
                <mxCell id="knSYhjle9zeNZ4a80TDH-29" value="attempt" style="text;strokeColor=none;fillColor=none;align=left;verticalAlign=top;spacingLeft=4;spacingRight=4;overflow=hidden;rotatable=0;points=[[0,0.5],[1,0.5]];portConstraint=eastwest;whiteSpace=wrap;html=1;fontSize=14;" parent="A2_o20lCk7Bo69_bm_1R-39" vertex="1">
                    <mxGeometry y="52" width="140" height="26" as="geometry"/>
                </mxCell>
                <mxCell id="A2_o20lCk7Bo69_bm_1R-41" value="question" style="text;strokeColor=none;fillColor=none;align=left;verticalAlign=top;spacingLeft=4;spacingRight=4;overflow=hidden;rotatable=0;points=[[0,0.5],[1,0.5]];portConstraint=eastwest;whiteSpace=wrap;html=1;fontSize=14;" parent="A2_o20lCk7Bo69_bm_1R-39" vertex="1">
                    <mxGeometry y="78" width="140" height="26" as="geometry"/>
                </mxCell>
                <mxCell id="knSYhjle9zeNZ4a80TDH-27" value="variants:string" style="text;strokeColor=none;fillColor=none;align=left;verticalAlign=top;spacingLeft=4;spacingRight=4;overflow=hidden;rotatable=0;points=[[0,0.5],[1,0.5]];portConstraint=eastwest;whiteSpace=wrap;html=1;fontSize=14;" parent="A2_o20lCk7Bo69_bm_1R-39" vertex="1">
                    <mxGeometry y="104" width="140" height="26" as="geometry"/>
                </mxCell>
                <mxCell id="Z2HKggQNWwd9ny8_5rTW-2" value="answer:string" style="text;strokeColor=none;fillColor=none;align=left;verticalAlign=top;spacingLeft=4;spacingRight=4;overflow=hidden;rotatable=0;points=[[0,0.5],[1,0.5]];portConstraint=eastwest;whiteSpace=wrap;html=1;fontSize=14;" parent="A2_o20lCk7Bo69_bm_1R-39" vertex="1">
                    <mxGeometry y="130" width="140" height="26" as="geometry"/>
                </mxCell>
                <mxCell id="A2_o20lCk7Bo69_bm_1R-42" value="order_index" style="text;strokeColor=none;fillColor=none;align=left;verticalAlign=top;spacingLeft=4;spacingRight=4;overflow=hidden;rotatable=0;points=[[0,0.5],[1,0.5]];portConstraint=eastwest;whiteSpace=wrap;html=1;fontSize=14;" parent="A2_o20lCk7Bo69_bm_1R-39" vertex="1">
                    <mxGeometry y="156" width="140" height="26" as="geometry"/>
                </mxCell>
                <mxCell id="knSYhjle9zeNZ4a80TDH-25" value="" style="edgeStyle=entityRelationEdgeStyle;fontSize=14;html=1;endArrow=ERoneToMany;rounded=0;" parent="1" source="knSYhjle9zeNZ4a80TDH-18" target="A2_o20lCk7Bo69_bm_1R-41" edge="1">
                    <mxGeometry width="100" height="100" relative="1" as="geometry">
                        <mxPoint x="-466" y="89" as="sourcePoint"/>
                        <mxPoint x="-320" y="51" as="targetPoint"/>
                    </mxGeometry>
                </mxCell>
                <mxCell id="knSYhjle9zeNZ4a80TDH-30" value="" style="edgeStyle=entityRelationEdgeStyle;fontSize=14;html=1;endArrow=ERoneToMany;rounded=0;" parent="1" source="HfUUzuVPssNEhjBBsc8r-12" target="knSYhjle9zeNZ4a80TDH-27" edge="1">
                    <mxGeometry width="100" height="100" relative="1" as="geometry">
                        <mxPoint x="-128" y="-96" as="sourcePoint"/>
                        <mxPoint x="-246" y="19" as="targetPoint"/>
                    </mxGeometry>
                </mxCell>
                <mxCell id="uSugXUn-U1zRzfgUpzMs-1" value="TaskSession" style="swimlane;fontStyle=0;childLayout=stackLayout;horizontal=1;startSize=26;fillColor=none;horizontalStack=0;resizeParent=1;resizeParentMax=0;resizeLast=0;collapsible=1;marginBottom=0;whiteSpace=wrap;html=1;fontSize=14;" parent="1" vertex="1">
                    <mxGeometry x="-342" y="-78" width="140" height="286" as="geometry"/>
                </mxCell>
                <mxCell id="uSugXUn-U1zRzfgUpzMs-2" value="id" style="text;strokeColor=none;fillColor=none;align=left;verticalAlign=top;spacingLeft=4;spacingRight=4;overflow=hidden;rotatable=0;points=[[0,0.5],[1,0.5]];portConstraint=eastwest;whiteSpace=wrap;html=1;fontSize=14;" parent="uSugXUn-U1zRzfgUpzMs-1" vertex="1">
                    <mxGeometry y="26" width="140" height="26" as="geometry"/>
                </mxCell>
                <mxCell id="uSugXUn-U1zRzfgUpzMs-3" value="start" style="text;strokeColor=none;fillColor=none;align=left;verticalAlign=top;spacingLeft=4;spacingRight=4;overflow=hidden;rotatable=0;points=[[0,0.5],[1,0.5]];portConstraint=eastwest;whiteSpace=wrap;html=1;fontSize=14;" parent="uSugXUn-U1zRzfgUpzMs-1" vertex="1">
                    <mxGeometry y="52" width="140" height="26" as="geometry"/>
                </mxCell>
                <mxCell id="uSugXUn-U1zRzfgUpzMs-4" value="finish" style="text;strokeColor=none;fillColor=none;align=left;verticalAlign=top;spacingLeft=4;spacingRight=4;overflow=hidden;rotatable=0;points=[[0,0.5],[1,0.5]];portConstraint=eastwest;whiteSpace=wrap;html=1;fontSize=14;" parent="uSugXUn-U1zRzfgUpzMs-1" vertex="1">
                    <mxGeometry y="78" width="140" height="26" as="geometry"/>
                </mxCell>
                <mxCell id="uSugXUn-U1zRzfgUpzMs-9" value="task" style="text;strokeColor=none;fillColor=none;align=left;verticalAlign=top;spacingLeft=4;spacingRight=4;overflow=hidden;rotatable=0;points=[[0,0.5],[1,0.5]];portConstraint=eastwest;whiteSpace=wrap;html=1;fontSize=14;" parent="uSugXUn-U1zRzfgUpzMs-1" vertex="1">
                    <mxGeometry y="104" width="140" height="26" as="geometry"/>
                </mxCell>
                <mxCell id="uSugXUn-U1zRzfgUpzMs-10" value="attempt_count" style="text;strokeColor=none;fillColor=none;align=left;verticalAlign=top;spacingLeft=4;spacingRight=4;overflow=hidden;rotatable=0;points=[[0,0.5],[1,0.5]];portConstraint=eastwest;whiteSpace=wrap;html=1;fontSize=14;" parent="uSugXUn-U1zRzfgUpzMs-1" vertex="1">
                    <mxGeometry y="130" width="140" height="26" as="geometry"/>
                </mxCell>
                <mxCell id="uSugXUn-U1zRzfgUpzMs-16" value="question_count" style="text;strokeColor=none;fillColor=none;align=left;verticalAlign=top;spacingLeft=4;spacingRight=4;overflow=hidden;rotatable=0;points=[[0,0.5],[1,0.5]];portConstraint=eastwest;whiteSpace=wrap;html=1;fontSize=14;" parent="uSugXUn-U1zRzfgUpzMs-1" vertex="1">
                    <mxGeometry y="156" width="140" height="26" as="geometry"/>
                </mxCell>
                <mxCell id="uSugXUn-U1zRzfgUpzMs-17" value="pass" style="text;strokeColor=none;fillColor=none;align=left;verticalAlign=top;spacingLeft=4;spacingRight=4;overflow=hidden;rotatable=0;points=[[0,0.5],[1,0.5]];portConstraint=eastwest;whiteSpace=wrap;html=1;fontSize=14;" parent="uSugXUn-U1zRzfgUpzMs-1" vertex="1">
                    <mxGeometry y="182" width="140" height="26" as="geometry"/>
                </mxCell>
                <mxCell id="uSugXUn-U1zRzfgUpzMs-18" value="good" style="text;strokeColor=none;fillColor=none;align=left;verticalAlign=top;spacingLeft=4;spacingRight=4;overflow=hidden;rotatable=0;points=[[0,0.5],[1,0.5]];portConstraint=eastwest;whiteSpace=wrap;html=1;fontSize=14;" parent="uSugXUn-U1zRzfgUpzMs-1" vertex="1">
                    <mxGeometry y="208" width="140" height="26" as="geometry"/>
                </mxCell>
                <mxCell id="uSugXUn-U1zRzfgUpzMs-20" value="excellent" style="text;strokeColor=none;fillColor=none;align=left;verticalAlign=top;spacingLeft=4;spacingRight=4;overflow=hidden;rotatable=0;points=[[0,0.5],[1,0.5]];portConstraint=eastwest;whiteSpace=wrap;html=1;fontSize=14;" parent="uSugXUn-U1zRzfgUpzMs-1" vertex="1">
                    <mxGeometry y="234" width="140" height="26" as="geometry"/>
                </mxCell>
                <mxCell id="uSugXUn-U1zRzfgUpzMs-19" value="test" style="text;strokeColor=none;fillColor=none;align=left;verticalAlign=top;spacingLeft=4;spacingRight=4;overflow=hidden;rotatable=0;points=[[0,0.5],[1,0.5]];portConstraint=eastwest;whiteSpace=wrap;html=1;fontSize=14;" parent="uSugXUn-U1zRzfgUpzMs-1" vertex="1">
                    <mxGeometry y="260" width="140" height="26" as="geometry"/>
                </mxCell>
                <mxCell id="uSugXUn-U1zRzfgUpzMs-5" value="Course" style="swimlane;fontStyle=0;childLayout=stackLayout;horizontal=1;startSize=26;fillColor=none;horizontalStack=0;resizeParent=1;resizeParentMax=0;resizeLast=0;collapsible=1;marginBottom=0;whiteSpace=wrap;html=1;fontSize=14;" parent="1" vertex="1">
                    <mxGeometry x="123" y="-139" width="140" height="78" as="geometry"/>
                </mxCell>
                <mxCell id="uSugXUn-U1zRzfgUpzMs-6" value="id" style="text;strokeColor=none;fillColor=none;align=left;verticalAlign=top;spacingLeft=4;spacingRight=4;overflow=hidden;rotatable=0;points=[[0,0.5],[1,0.5]];portConstraint=eastwest;whiteSpace=wrap;html=1;fontSize=14;" parent="uSugXUn-U1zRzfgUpzMs-5" vertex="1">
                    <mxGeometry y="26" width="140" height="26" as="geometry"/>
                </mxCell>
                <mxCell id="uSugXUn-U1zRzfgUpzMs-7" value="name" style="text;strokeColor=none;fillColor=none;align=left;verticalAlign=top;spacingLeft=4;spacingRight=4;overflow=hidden;rotatable=0;points=[[0,0.5],[1,0.5]];portConstraint=eastwest;whiteSpace=wrap;html=1;fontSize=14;" parent="uSugXUn-U1zRzfgUpzMs-5" vertex="1">
                    <mxGeometry y="52" width="140" height="26" as="geometry"/>
                </mxCell>
                <mxCell id="uSugXUn-U1zRzfgUpzMs-11" value="Task" style="swimlane;fontStyle=0;childLayout=stackLayout;horizontal=1;startSize=26;fillColor=none;horizontalStack=0;resizeParent=1;resizeParentMax=0;resizeLast=0;collapsible=1;marginBottom=0;whiteSpace=wrap;html=1;fontSize=14;" parent="1" vertex="1">
                    <mxGeometry x="-112" y="-83" width="140" height="104" as="geometry"/>
                </mxCell>
                <mxCell id="uSugXUn-U1zRzfgUpzMs-12" value="id" style="text;strokeColor=none;fillColor=none;align=left;verticalAlign=top;spacingLeft=4;spacingRight=4;overflow=hidden;rotatable=0;points=[[0,0.5],[1,0.5]];portConstraint=eastwest;whiteSpace=wrap;html=1;fontSize=14;" parent="uSugXUn-U1zRzfgUpzMs-11" vertex="1">
                    <mxGeometry y="26" width="140" height="26" as="geometry"/>
                </mxCell>
                <mxCell id="uSugXUn-U1zRzfgUpzMs-13" value="theme" style="text;strokeColor=none;fillColor=none;align=left;verticalAlign=top;spacingLeft=4;spacingRight=4;overflow=hidden;rotatable=0;points=[[0,0.5],[1,0.5]];portConstraint=eastwest;whiteSpace=wrap;html=1;fontSize=14;" parent="uSugXUn-U1zRzfgUpzMs-11" vertex="1">
                    <mxGeometry y="52" width="140" height="26" as="geometry"/>
                </mxCell>
                <mxCell id="OGinCu-ws_rAySUyGng9-1" value="description" style="text;strokeColor=none;fillColor=none;align=left;verticalAlign=top;spacingLeft=4;spacingRight=4;overflow=hidden;rotatable=0;points=[[0,0.5],[1,0.5]];portConstraint=eastwest;whiteSpace=wrap;html=1;fontSize=14;" parent="uSugXUn-U1zRzfgUpzMs-11" vertex="1">
                    <mxGeometry y="78" width="140" height="26" as="geometry"/>
                </mxCell>
                <mxCell id="uSugXUn-U1zRzfgUpzMs-22" value="" style="edgeStyle=entityRelationEdgeStyle;fontSize=14;html=1;endArrow=ERoneToMany;rounded=0;" parent="1" source="A2_o20lCk7Bo69_bm_1R-2" target="uSugXUn-U1zRzfgUpzMs-12" edge="1">
                    <mxGeometry width="100" height="100" relative="1" as="geometry">
                        <mxPoint x="-188" y="208" as="sourcePoint"/>
                        <mxPoint x="-88" y="108" as="targetPoint"/>
                    </mxGeometry>
                </mxCell>
                <mxCell id="uSugXUn-U1zRzfgUpzMs-23" value="" style="edgeStyle=entityRelationEdgeStyle;fontSize=14;html=1;endArrow=ERoneToMany;rounded=0;" parent="1" source="uSugXUn-U1zRzfgUpzMs-19" target="A2_o20lCk7Bo69_bm_1R-20" edge="1">
                    <mxGeometry width="100" height="100" relative="1" as="geometry">
                        <mxPoint x="-157" y="276" as="sourcePoint"/>
                        <mxPoint x="-57" y="176" as="targetPoint"/>
                    </mxGeometry>
                </mxCell>
                <mxCell id="uSugXUn-U1zRzfgUpzMs-24" value="" style="edgeStyle=entityRelationEdgeStyle;fontSize=14;html=1;endArrow=ERoneToMany;rounded=0;" parent="1" source="uSugXUn-U1zRzfgUpzMs-13" target="uSugXUn-U1zRzfgUpzMs-1" edge="1">
                    <mxGeometry width="100" height="100" relative="1" as="geometry">
                        <mxPoint x="133" y="222" as="sourcePoint"/>
                        <mxPoint x="233" y="122" as="targetPoint"/>
                    </mxGeometry>
                </mxCell>
                <mxCell id="uSugXUn-U1zRzfgUpzMs-25" value="" style="edgeStyle=entityRelationEdgeStyle;fontSize=14;html=1;endArrow=ERoneToMany;rounded=0;" parent="1" source="uSugXUn-U1zRzfgUpzMs-7" target="uSugXUn-U1zRzfgUpzMs-11" edge="1">
                    <mxGeometry width="100" height="100" relative="1" as="geometry">
                        <mxPoint x="105" y="-236" as="sourcePoint"/>
                        <mxPoint x="356" y="242" as="targetPoint"/>
                    </mxGeometry>
                </mxCell>
                <mxCell id="HfUUzuVPssNEhjBBsc8r-1" value="Lecture" style="swimlane;fontStyle=0;childLayout=stackLayout;horizontal=1;startSize=26;fillColor=none;horizontalStack=0;resizeParent=1;resizeParentMax=0;resizeLast=0;collapsible=1;marginBottom=0;whiteSpace=wrap;html=1;fontSize=14;" parent="1" vertex="1">
                    <mxGeometry x="-98" y="-257" width="140" height="104" as="geometry"/>
                </mxCell>
                <mxCell id="HfUUzuVPssNEhjBBsc8r-2" value="id" style="text;strokeColor=none;fillColor=none;align=left;verticalAlign=top;spacingLeft=4;spacingRight=4;overflow=hidden;rotatable=0;points=[[0,0.5],[1,0.5]];portConstraint=eastwest;whiteSpace=wrap;html=1;fontSize=14;" parent="HfUUzuVPssNEhjBBsc8r-1" vertex="1">
                    <mxGeometry y="26" width="140" height="26" as="geometry"/>
                </mxCell>
                <mxCell id="HfUUzuVPssNEhjBBsc8r-3" value="theme" style="text;strokeColor=none;fillColor=none;align=left;verticalAlign=top;spacingLeft=4;spacingRight=4;overflow=hidden;rotatable=0;points=[[0,0.5],[1,0.5]];portConstraint=eastwest;whiteSpace=wrap;html=1;fontSize=14;" parent="HfUUzuVPssNEhjBBsc8r-1" vertex="1">
                    <mxGeometry y="52" width="140" height="26" as="geometry"/>
                </mxCell>
                <mxCell id="OGinCu-ws_rAySUyGng9-2" value="description" style="text;strokeColor=none;fillColor=none;align=left;verticalAlign=top;spacingLeft=4;spacingRight=4;overflow=hidden;rotatable=0;points=[[0,0.5],[1,0.5]];portConstraint=eastwest;whiteSpace=wrap;html=1;fontSize=14;" parent="HfUUzuVPssNEhjBBsc8r-1" vertex="1">
                    <mxGeometry y="78" width="140" height="26" as="geometry"/>
                </mxCell>
                <mxCell id="HfUUzuVPssNEhjBBsc8r-5" value="Attachment" style="swimlane;fontStyle=0;childLayout=stackLayout;horizontal=1;startSize=26;fillColor=none;horizontalStack=0;resizeParent=1;resizeParentMax=0;resizeLast=0;collapsible=1;marginBottom=0;whiteSpace=wrap;html=1;fontSize=14;" parent="1" vertex="1">
                    <mxGeometry x="-306" y="-436" width="140" height="182" as="geometry"/>
                </mxCell>
                <mxCell id="HfUUzuVPssNEhjBBsc8r-6" value="id" style="text;strokeColor=none;fillColor=none;align=left;verticalAlign=top;spacingLeft=4;spacingRight=4;overflow=hidden;rotatable=0;points=[[0,0.5],[1,0.5]];portConstraint=eastwest;whiteSpace=wrap;html=1;fontSize=14;" parent="HfUUzuVPssNEhjBBsc8r-5" vertex="1">
                    <mxGeometry y="26" width="140" height="26" as="geometry"/>
                </mxCell>
                <mxCell id="HfUUzuVPssNEhjBBsc8r-9" value="name" style="text;strokeColor=none;fillColor=none;align=left;verticalAlign=top;spacingLeft=4;spacingRight=4;overflow=hidden;rotatable=0;points=[[0,0.5],[1,0.5]];portConstraint=eastwest;whiteSpace=wrap;html=1;fontSize=14;" parent="HfUUzuVPssNEhjBBsc8r-5" vertex="1">
                    <mxGeometry y="52" width="140" height="26" as="geometry"/>
                </mxCell>
                <mxCell id="OGinCu-ws_rAySUyGng9-3" value="description" style="text;strokeColor=none;fillColor=none;align=left;verticalAlign=top;spacingLeft=4;spacingRight=4;overflow=hidden;rotatable=0;points=[[0,0.5],[1,0.5]];portConstraint=eastwest;whiteSpace=wrap;html=1;fontSize=14;" parent="HfUUzuVPssNEhjBBsc8r-5" vertex="1">
                    <mxGeometry y="78" width="140" height="26" as="geometry"/>
                </mxCell>
                <mxCell id="HfUUzuVPssNEhjBBsc8r-7" value="mimetype" style="text;strokeColor=none;fillColor=none;align=left;verticalAlign=top;spacingLeft=4;spacingRight=4;overflow=hidden;rotatable=0;points=[[0,0.5],[1,0.5]];portConstraint=eastwest;whiteSpace=wrap;html=1;fontSize=14;" parent="HfUUzuVPssNEhjBBsc8r-5" vertex="1">
                    <mxGeometry y="104" width="140" height="26" as="geometry"/>
                </mxCell>
                <mxCell id="HfUUzuVPssNEhjBBsc8r-8" value="type" style="text;strokeColor=none;fillColor=none;align=left;verticalAlign=top;spacingLeft=4;spacingRight=4;overflow=hidden;rotatable=0;points=[[0,0.5],[1,0.5]];portConstraint=eastwest;whiteSpace=wrap;html=1;fontSize=14;" parent="HfUUzuVPssNEhjBBsc8r-5" vertex="1">
                    <mxGeometry y="130" width="140" height="26" as="geometry"/>
                </mxCell>
                <mxCell id="29" value="content" style="text;strokeColor=none;fillColor=none;align=left;verticalAlign=top;spacingLeft=4;spacingRight=4;overflow=hidden;rotatable=0;points=[[0,0.5],[1,0.5]];portConstraint=eastwest;whiteSpace=wrap;html=1;fontSize=14;" parent="HfUUzuVPssNEhjBBsc8r-5" vertex="1">
                    <mxGeometry y="156" width="140" height="26" as="geometry"/>
                </mxCell>
                <mxCell id="HfUUzuVPssNEhjBBsc8r-10" value="" style="edgeStyle=entityRelationEdgeStyle;fontSize=14;html=1;endArrow=ERoneToMany;rounded=0;startSize=8;endSize=8;startArrow=ERoneToMany;startFill=0;" parent="1" source="HfUUzuVPssNEhjBBsc8r-3" target="HfUUzuVPssNEhjBBsc8r-5" edge="1">
                    <mxGeometry width="100" height="100" relative="1" as="geometry">
                        <mxPoint x="-675" y="301" as="sourcePoint"/>
                        <mxPoint x="-558" y="335" as="targetPoint"/>
                    </mxGeometry>
                </mxCell>
                <mxCell id="HfUUzuVPssNEhjBBsc8r-11" value="" style="edgeStyle=entityRelationEdgeStyle;fontSize=14;html=1;endArrow=ERoneToMany;rounded=0;" parent="1" source="uSugXUn-U1zRzfgUpzMs-6" target="HfUUzuVPssNEhjBBsc8r-2" edge="1">
                    <mxGeometry width="100" height="100" relative="1" as="geometry">
                        <mxPoint x="393" y="320" as="sourcePoint"/>
                        <mxPoint x="261" y="150" as="targetPoint"/>
                    </mxGeometry>
                </mxCell>
                <mxCell id="h9vVkXHa9_eKTQnh1me6-1" value="Group" style="swimlane;fontStyle=0;childLayout=stackLayout;horizontal=1;startSize=26;fillColor=none;horizontalStack=0;resizeParent=1;resizeParentMax=0;resizeLast=0;collapsible=1;marginBottom=0;whiteSpace=wrap;html=1;fontSize=14;" parent="1" vertex="1">
                    <mxGeometry x="372" y="-95" width="140" height="78" as="geometry"/>
                </mxCell>
                <mxCell id="h9vVkXHa9_eKTQnh1me6-2" value="id" style="text;strokeColor=none;fillColor=none;align=left;verticalAlign=top;spacingLeft=4;spacingRight=4;overflow=hidden;rotatable=0;points=[[0,0.5],[1,0.5]];portConstraint=eastwest;whiteSpace=wrap;html=1;fontSize=14;" parent="h9vVkXHa9_eKTQnh1me6-1" vertex="1">
                    <mxGeometry y="26" width="140" height="26" as="geometry"/>
                </mxCell>
                <mxCell id="h9vVkXHa9_eKTQnh1me6-3" value="name" style="text;strokeColor=none;fillColor=none;align=left;verticalAlign=top;spacingLeft=4;spacingRight=4;overflow=hidden;rotatable=0;points=[[0,0.5],[1,0.5]];portConstraint=eastwest;whiteSpace=wrap;html=1;fontSize=14;" parent="h9vVkXHa9_eKTQnh1me6-1" vertex="1">
                    <mxGeometry y="52" width="140" height="26" as="geometry"/>
                </mxCell>
                <mxCell id="h9vVkXHa9_eKTQnh1me6-32" value="Role" style="swimlane;fontStyle=0;childLayout=stackLayout;horizontal=1;startSize=26;fillColor=none;horizontalStack=0;resizeParent=1;resizeParentMax=0;resizeLast=0;collapsible=1;marginBottom=0;whiteSpace=wrap;html=1;fontSize=14;" parent="1" vertex="1">
                    <mxGeometry x="183" y="128" width="140" height="104" as="geometry"/>
                </mxCell>
                <mxCell id="h9vVkXHa9_eKTQnh1me6-33" value="key" style="text;strokeColor=none;fillColor=none;align=left;verticalAlign=top;spacingLeft=4;spacingRight=4;overflow=hidden;rotatable=0;points=[[0,0.5],[1,0.5]];portConstraint=eastwest;whiteSpace=wrap;html=1;fontSize=14;" parent="h9vVkXHa9_eKTQnh1me6-32" vertex="1">
                    <mxGeometry y="26" width="140" height="26" as="geometry"/>
                </mxCell>
                <mxCell id="h9vVkXHa9_eKTQnh1me6-34" value="name" style="text;strokeColor=none;fillColor=none;align=left;verticalAlign=top;spacingLeft=4;spacingRight=4;overflow=hidden;rotatable=0;points=[[0,0.5],[1,0.5]];portConstraint=eastwest;whiteSpace=wrap;html=1;fontSize=14;" parent="h9vVkXHa9_eKTQnh1me6-32" vertex="1">
                    <mxGeometry y="52" width="140" height="26" as="geometry"/>
                </mxCell>
                <mxCell id="h9vVkXHa9_eKTQnh1me6-74" value="...privellegies" style="text;strokeColor=none;fillColor=none;align=left;verticalAlign=top;spacingLeft=4;spacingRight=4;overflow=hidden;rotatable=0;points=[[0,0.5],[1,0.5]];portConstraint=eastwest;whiteSpace=wrap;html=1;fontSize=14;" parent="h9vVkXHa9_eKTQnh1me6-32" vertex="1">
                    <mxGeometry y="78" width="140" height="26" as="geometry"/>
                </mxCell>
                <mxCell id="h9vVkXHa9_eKTQnh1me6-45" value="User" style="swimlane;fontStyle=0;childLayout=stackLayout;horizontal=1;startSize=26;fillColor=none;horizontalStack=0;resizeParent=1;resizeParentMax=0;resizeLast=0;collapsible=1;marginBottom=0;whiteSpace=wrap;html=1;fontSize=14;" parent="1" vertex="1">
                    <mxGeometry x="-105" y="128" width="140" height="208" as="geometry"/>
                </mxCell>
                <mxCell id="h9vVkXHa9_eKTQnh1me6-60" value="id" style="text;strokeColor=none;fillColor=none;align=left;verticalAlign=top;spacingLeft=4;spacingRight=4;overflow=hidden;rotatable=0;points=[[0,0.5],[1,0.5]];portConstraint=eastwest;whiteSpace=wrap;html=1;fontSize=14;" parent="h9vVkXHa9_eKTQnh1me6-45" vertex="1">
                    <mxGeometry y="26" width="140" height="26" as="geometry"/>
                </mxCell>
                <mxCell id="h9vVkXHa9_eKTQnh1me6-61" value="email" style="text;strokeColor=none;fillColor=none;align=left;verticalAlign=top;spacingLeft=4;spacingRight=4;overflow=hidden;rotatable=0;points=[[0,0.5],[1,0.5]];portConstraint=eastwest;whiteSpace=wrap;html=1;fontSize=14;" parent="h9vVkXHa9_eKTQnh1me6-45" vertex="1">
                    <mxGeometry y="52" width="140" height="26" as="geometry"/>
                </mxCell>
                <mxCell id="h9vVkXHa9_eKTQnh1me6-70" value="password" style="text;strokeColor=none;fillColor=none;align=left;verticalAlign=top;spacingLeft=4;spacingRight=4;overflow=hidden;rotatable=0;points=[[0,0.5],[1,0.5]];portConstraint=eastwest;whiteSpace=wrap;html=1;fontSize=14;" parent="h9vVkXHa9_eKTQnh1me6-45" vertex="1">
                    <mxGeometry y="78" width="140" height="26" as="geometry"/>
                </mxCell>
                <mxCell id="h9vVkXHa9_eKTQnh1me6-71" value="resettToken" style="text;strokeColor=none;fillColor=none;align=left;verticalAlign=top;spacingLeft=4;spacingRight=4;overflow=hidden;rotatable=0;points=[[0,0.5],[1,0.5]];portConstraint=eastwest;whiteSpace=wrap;html=1;fontSize=14;" parent="h9vVkXHa9_eKTQnh1me6-45" vertex="1">
                    <mxGeometry y="104" width="140" height="26" as="geometry"/>
                </mxCell>
                <mxCell id="h9vVkXHa9_eKTQnh1me6-62" value="first_name" style="text;strokeColor=none;fillColor=none;align=left;verticalAlign=top;spacingLeft=4;spacingRight=4;overflow=hidden;rotatable=0;points=[[0,0.5],[1,0.5]];portConstraint=eastwest;whiteSpace=wrap;html=1;fontSize=14;" parent="h9vVkXHa9_eKTQnh1me6-45" vertex="1">
                    <mxGeometry y="130" width="140" height="26" as="geometry"/>
                </mxCell>
                <mxCell id="h9vVkXHa9_eKTQnh1me6-63" value="middle_name" style="text;strokeColor=none;fillColor=none;align=left;verticalAlign=top;spacingLeft=4;spacingRight=4;overflow=hidden;rotatable=0;points=[[0,0.5],[1,0.5]];portConstraint=eastwest;whiteSpace=wrap;html=1;fontSize=14;" parent="h9vVkXHa9_eKTQnh1me6-45" vertex="1">
                    <mxGeometry y="156" width="140" height="26" as="geometry"/>
                </mxCell>
                <mxCell id="h9vVkXHa9_eKTQnh1me6-64" value="last_name" style="text;strokeColor=none;fillColor=none;align=left;verticalAlign=top;spacingLeft=4;spacingRight=4;overflow=hidden;rotatable=0;points=[[0,0.5],[1,0.5]];portConstraint=eastwest;whiteSpace=wrap;html=1;fontSize=14;" parent="h9vVkXHa9_eKTQnh1me6-45" vertex="1">
                    <mxGeometry y="182" width="140" height="26" as="geometry"/>
                </mxCell>
                <mxCell id="h9vVkXHa9_eKTQnh1me6-67" value="" style="edgeStyle=entityRelationEdgeStyle;fontSize=14;html=1;endArrow=ERoneToMany;startArrow=ERoneToMany;rounded=0;startSize=8;endSize=8;startFill=0;endFill=0;" parent="1" source="uSugXUn-U1zRzfgUpzMs-6" target="h9vVkXHa9_eKTQnh1me6-2" edge="1">
                    <mxGeometry width="100" height="100" relative="1" as="geometry">
                        <mxPoint x="301" y="109" as="sourcePoint"/>
                        <mxPoint x="401" y="9" as="targetPoint"/>
                    </mxGeometry>
                </mxCell>
                <mxCell id="UrnISwRpIRQCgWBPrBSa-17" value="" style="edgeStyle=entityRelationEdgeStyle;fontSize=14;html=1;endArrow=ERoneToMany;rounded=0;startArrow=ERoneToMany;startFill=0;" parent="1" source="h9vVkXHa9_eKTQnh1me6-64" target="h9vVkXHa9_eKTQnh1me6-32" edge="1">
                    <mxGeometry width="100" height="100" relative="1" as="geometry">
                        <mxPoint x="617" y="236" as="sourcePoint"/>
                        <mxPoint x="717" y="136" as="targetPoint"/>
                    </mxGeometry>
                </mxCell>
                <mxCell id="14" value="" style="edgeStyle=entityRelationEdgeStyle;fontSize=12;html=1;endArrow=ERoneToMany;rounded=0;exitX=-0.007;exitY=1.038;exitDx=0;exitDy=0;exitPerimeter=0;" parent="1" source="h9vVkXHa9_eKTQnh1me6-2" target="h9vVkXHa9_eKTQnh1me6-60" edge="1">
                    <mxGeometry width="100" height="100" relative="1" as="geometry">
                        <mxPoint x="536" y="-116" as="sourcePoint"/>
                        <mxPoint x="636" y="-216" as="targetPoint"/>
                    </mxGeometry>
                </mxCell>
                <mxCell id="15" value="" style="edgeStyle=entityRelationEdgeStyle;fontSize=12;html=1;endArrow=ERoneToMany;rounded=0;" parent="1" source="h9vVkXHa9_eKTQnh1me6-61" target="uSugXUn-U1zRzfgUpzMs-7" edge="1">
                    <mxGeometry width="100" height="100" relative="1" as="geometry">
                        <mxPoint x="292" y="-43" as="sourcePoint"/>
                        <mxPoint x="392" y="-143" as="targetPoint"/>
                    </mxGeometry>
                </mxCell>
                <mxCell id="17" value="" style="edgeStyle=entityRelationEdgeStyle;fontSize=12;html=1;endArrow=ERmany;" parent="1" source="h9vVkXHa9_eKTQnh1me6-45" target="HfUUzuVPssNEhjBBsc8r-12" edge="1">
                    <mxGeometry width="100" height="100" relative="1" as="geometry">
                        <mxPoint x="30" y="339" as="sourcePoint"/>
                        <mxPoint x="130" y="239" as="targetPoint"/>
                    </mxGeometry>
                </mxCell>
                <mxCell id="19" value="V" style="text;html=1;align=center;verticalAlign=middle;resizable=0;points=[];autosize=1;strokeColor=none;fillColor=none;" parent="1" vertex="1">
                    <mxGeometry x="337" y="118" width="26" height="26" as="geometry"/>
                </mxCell>
                <mxCell id="20" value="V" style="text;html=1;align=center;verticalAlign=middle;resizable=0;points=[];autosize=1;strokeColor=none;fillColor=none;" parent="1" vertex="1">
                    <mxGeometry x="516" y="-78" width="26" height="26" as="geometry"/>
                </mxCell>
                <mxCell id="26" value="V" style="text;html=1;align=center;verticalAlign=middle;resizable=0;points=[];autosize=1;strokeColor=none;fillColor=none;" parent="1" vertex="1">
                    <mxGeometry x="280" y="-145" width="26" height="26" as="geometry"/>
                </mxCell>
                <mxCell id="27" value="V" style="text;html=1;align=center;verticalAlign=middle;resizable=0;points=[];autosize=1;strokeColor=none;fillColor=none;" parent="1" vertex="1">
                    <mxGeometry x="35" y="-93" width="26" height="26" as="geometry"/>
                </mxCell>
                <mxCell id="28" value="V" style="text;html=1;align=center;verticalAlign=middle;resizable=0;points=[];autosize=1;strokeColor=none;fillColor=none;" parent="1" vertex="1">
                    <mxGeometry x="-429" y="-251" width="26" height="26" as="geometry"/>
                </mxCell>
                <mxCell id="31" value="V" style="text;html=1;align=center;verticalAlign=middle;resizable=0;points=[];autosize=1;strokeColor=none;fillColor=none;" parent="1" vertex="1">
                    <mxGeometry x="-625" y="-119" width="26" height="26" as="geometry"/>
                </mxCell>
                <mxCell id="32" value="V" style="text;html=1;align=center;verticalAlign=middle;resizable=0;points=[];autosize=1;strokeColor=none;fillColor=none;" parent="1" vertex="1">
                    <mxGeometry x="-413" y="157" width="26" height="26" as="geometry"/>
                </mxCell>
                <mxCell id="33" value="" style="edgeStyle=entityRelationEdgeStyle;fontSize=12;html=1;endArrow=ERmany;rounded=0;exitX=0;exitY=0.5;exitDx=0;exitDy=0;startArrow=ERmany;startFill=0;" parent="1" source="h9vVkXHa9_eKTQnh1me6-3" target="uSugXUn-U1zRzfgUpzMs-16" edge="1">
                    <mxGeometry width="100" height="100" relative="1" as="geometry">
                        <mxPoint x="52" y="162" as="sourcePoint"/>
                        <mxPoint x="152" y="62" as="targetPoint"/>
                    </mxGeometry>
                </mxCell>
                <mxCell id="34" value="V" style="text;html=1;align=center;verticalAlign=middle;resizable=0;points=[];autosize=1;strokeColor=none;fillColor=none;" parent="1" vertex="1">
                    <mxGeometry x="28" y="99" width="26" height="26" as="geometry"/>
                </mxCell>
                <mxCell id="35" value="V" style="text;html=1;align=center;verticalAlign=middle;resizable=0;points=[];autosize=1;strokeColor=none;fillColor=none;" parent="1" vertex="1">
                    <mxGeometry x="-191" y="-62" width="26" height="26" as="geometry"/>
                </mxCell>
                <mxCell id="36" value="V" style="text;html=1;align=center;verticalAlign=middle;resizable=0;points=[];autosize=1;strokeColor=none;fillColor=none;" parent="1" vertex="1">
                    <mxGeometry x="-503" y="-277" width="26" height="26" as="geometry"/>
                </mxCell>
            </root>
        </mxGraphModel>
    </diagram>
</mxfile>